<svg width="24" height="24" viewBox="0 0 24 24" fill="none" xmlns="http://www.w3.org/2000/svg">
<path d="M8.0249 20C7.6249 20 7.2749 19.85 6.9749 19.55C6.6749 19.25 6.5249 18.9 6.5249 18.5V16.75C6.5249 16.5333 6.59574 16.3542 6.7374 16.2125C6.87907 16.0708 7.05824 16 7.2749 16H9.6249V12.825C8.99157 12.875 8.35824 12.7875 7.7249 12.5625C7.09157 12.3375 6.5249 11.9833 6.0249 11.5V10.05H4.7749L2.1999 7.475C1.9999 7.275 1.8999 7.05 1.8999 6.8C1.8999 6.55 1.9999 6.35 2.1999 6.2C2.73324 5.8 3.35407 5.475 4.0624 5.225C4.77074 4.975 5.48324 4.85 6.1999 4.85C6.6999 4.85 7.27074 4.92917 7.9124 5.0875C8.55407 5.24583 9.1249 5.5 9.6249 5.85V4.75C9.6249 4.53333 9.69574 4.35417 9.8374 4.2125C9.97907 4.07083 10.1582 4 10.3749 4H20.2499C20.4666 4 20.6457 4.07083 20.7874 4.2125C20.9291 4.35417 20.9999 4.53333 20.9999 4.75V17.375C20.9999 18.1083 20.7457 18.7292 20.2374 19.2375C19.7291 19.7458 19.1082 20 18.3749 20H8.0249ZM11.1249 16H16.4999C16.7166 16 16.8957 16.0708 17.0374 16.2125C17.1791 16.3542 17.2499 16.5333 17.2499 16.75V17.375C17.2499 17.7083 17.3541 17.9792 17.5624 18.1875C17.7707 18.3958 18.0416 18.5 18.3749 18.5C18.7082 18.5 18.9791 18.3958 19.1874 18.1875C19.3957 17.9792 19.4999 17.7083 19.4999 17.375V5.5H11.1249V6.925L16.8249 12.625C16.9249 12.725 17.0041 12.825 17.0624 12.925C17.1207 13.025 17.1499 13.1417 17.1499 13.275C17.1499 13.4917 17.0791 13.6708 16.9374 13.8125C16.7957 13.9542 16.6166 14.025 16.3999 14.025C16.2666 14.025 16.1499 13.9958 16.0499 13.9375C15.9499 13.8792 15.8499 13.8 15.7499 13.7L12.9249 10.875L12.4999 11.375C12.2832 11.625 12.0666 11.8167 11.8499 11.95C11.6332 12.0833 11.3916 12.2083 11.1249 12.325V16ZM5.4499 8.55H7.5249V10.775C7.80824 10.9583 8.0874 11.0958 8.3624 11.1875C8.6374 11.2792 8.91657 11.325 9.1999 11.325C9.61657 11.325 10.0416 11.2125 10.4749 10.9875C10.9082 10.7625 11.2249 10.5333 11.4249 10.3L11.8499 9.8L10.1249 8.075C9.59157 7.54167 8.99157 7.12083 8.3249 6.8125C7.65824 6.50417 6.9499 6.35 6.1999 6.35C5.7499 6.35 5.34157 6.40417 4.9749 6.5125C4.60824 6.62083 4.23324 6.76667 3.8499 6.95L5.4499 8.55ZM8.0249 18.5H16.0999C15.9999 18.4 15.9166 18.2625 15.8499 18.0875C15.7832 17.9125 15.7499 17.7167 15.7499 17.5H8.0249V18.5ZM8.0249 18.5V17.5C8.0249 17.7167 8.0249 17.9125 8.0249 18.0875C8.0249 18.2625 8.0249 18.4 8.0249 18.5Z" fill="url(#paint0_linear_304_56)"/>
<defs>
<linearGradient id="paint0_linear_304_56" x1="11.4499" y1="4" x2="11.4499" y2="20" gradientUnits="userSpaceOnUse">
<stop stop-color="#F82929"/>
<stop offset="1" stop-color="#DD0A0A"/>
</linearGradient>
</defs>
</svg>
