<svg width="148" height="37" viewBox="0 0 148 37" fill="none" xmlns="http://www.w3.org/2000/svg">
<path d="M34.6081 2.30401L22.6561 36H12.3841L0.432129 2.30401H9.16813L17.5201 27.744L25.9201 2.30401H34.6081Z" fill="#141414"/>
<path d="M54.5026 8.92801C57.5746 8.92801 60.0386 9.95201 61.8946 12C63.7506 14.016 64.6786 16.8 64.6786 20.352V36H56.5186V21.456C56.5186 19.664 56.0546 18.272 55.1266 17.28C54.1986 16.288 52.9506 15.792 51.3826 15.792C49.8146 15.792 48.5666 16.288 47.6386 17.28C46.7106 18.272 46.2466 19.664 46.2466 21.456V36H38.0386V0.480011H46.2466V12.816C47.0786 11.632 48.2146 10.688 49.6546 9.98401C51.0946 9.28001 52.7106 8.92801 54.5026 8.92801Z" fill="#141414"/>
<path d="M96.8304 9.21601V36H88.6224V32.352C87.7904 33.536 86.6544 34.496 85.2144 35.232C83.8064 35.936 82.2384 36.288 80.5104 36.288C78.4624 36.288 76.6544 35.84 75.0864 34.944C73.5184 34.016 72.3024 32.688 71.4384 30.96C70.5744 29.232 70.1424 27.2 70.1424 24.864V9.21601H78.3024V23.76C78.3024 25.552 78.7664 26.944 79.6944 27.936C80.6224 28.928 81.8704 29.424 83.4384 29.424C85.0384 29.424 86.3024 28.928 87.2304 27.936C88.1584 26.944 88.6224 25.552 88.6224 23.76V9.21601H96.8304Z" fill="#141414"/>
<path d="M136.902 8.92801C140.23 8.92801 142.87 9.93601 144.822 11.952C146.806 13.968 147.798 16.768 147.798 20.352V36H139.638V21.456C139.638 19.728 139.174 18.4 138.246 17.472C137.35 16.512 136.102 16.032 134.502 16.032C132.902 16.032 131.638 16.512 130.71 17.472C129.814 18.4 129.366 19.728 129.366 21.456V36H121.206V21.456C121.206 19.728 120.742 18.4 119.814 17.472C118.918 16.512 117.67 16.032 116.07 16.032C114.47 16.032 113.206 16.512 112.278 17.472C111.382 18.4 110.934 19.728 110.934 21.456V36H102.726V9.21601H110.934V12.576C111.766 11.456 112.854 10.576 114.198 9.93601C115.542 9.26401 117.062 8.92801 118.758 8.92801C120.774 8.92801 122.566 9.36001 124.134 10.224C125.734 11.088 126.982 12.32 127.878 13.92C128.806 12.448 130.07 11.248 131.67 10.32C133.27 9.39201 135.014 8.92801 136.902 8.92801Z" fill="#141414"/>
</svg>
